<svg width="30" height="30" viewBox="0 0 30 30" fill="none" xmlns="http://www.w3.org/2000/svg">
    <rect width="30" height="30" rx="15" fill="#897CF1"></rect>
    <path fill-rule="evenodd" clip-rule="evenodd"
          d="M15.8969 7.5C10.5834 7.5 8.53621 13.6084 9.49158 18.3505C9.7599 19.6829 10.0143 20.4564 10.4255 21.1395C10.9557 22.0145 11.5975 22.5 12.511 22.5C14.5037 22.5 15.7401 20.5637 16.0357 18.3168C16.0549 18.17 16.1054 16.6456 16.1403 15.7931C18.4471 15.3471 20.5234 14.1786 20.7237 11.6721C20.8352 10.2663 20.1232 9.15973 19.1336 8.4597C18.1823 7.78789 16.9766 7.5 15.8969 7.5ZM14.2876 15.8496C14.3741 18.9546 13.6975 20.9024 12.6841 20.8572C11.1224 20.7782 11.2101 16.3126 11.2856 15.0028C11.4366 12.372 12.4117 10.3736 14.0146 9.54372C15.7262 8.65738 18.3327 9.27268 18.8798 10.8929C19.3688 12.3494 18.1573 13.9416 16.192 14.094C16.124 13.3262 16.9534 11.4293 16.5851 11.1245C16.131 10.7462 15.2203 10.8309 14.8504 11.3898C14.3021 12.2197 14.208 13.0382 14.2075 14.1673C13.8933 14.1334 13.435 13.8851 12.964 13.631C12.5947 13.5294 12.5377 13.7608 12.5197 14.0262C12.4797 14.5851 12.5319 14.8842 12.777 15.0875C13.1476 15.3923 13.6453 15.6464 14.2876 15.8496Z"
          fill="white"></path>
</svg>